# xmcd CD database file
#
# Track frame offsets:
#	150
#	13825
#	26625
#	37200
#	49575
#	62162
#	73912
#	85575
#	100212
#	110075
#	120800
#	130337
#	143587
#	157237
#	173750
#	185225
#
# Disc length: 2618 seconds
#
# Revision: 0
# Processed by: cddbd v1.5.1PL2 Copyright (c) Steve Scherf et al.
# Submitted via: CDex 1.50
#
DISCID=e50a3810
DTITLE=Dave Reynolds - Keep On Truckin'
DYEAR=2005
DGENRE=Country
TTITLE0=Highway Fever
TTITLE1=Carrol County Accident
TTITLE2=I've Got You
TTITLE3=I Can See Forever In Your Eyes
TTITLE4=Spell Of the Freight Train
TTITLE5=Beautiful Dreamer
TTITLE6=It's A Truckin' Life
TTITLE7=I've Got To Travel On and Rollin' In My Sweet Baby's Arms
TTITLE8=Hey Good Lookin'
TTITLE9=Walk On By
TTITLE10=Six Days On The Road
TTITLE11=Show Me A Man
TTITLE12=Singing The Blues
TTITLE13=Movin' On
TTITLE14=North Wind
TTITLE15=Old Queensland Special
EXTD=YEAR: 2005
EXTT0=
EXTT1=
EXTT2=
EXTT3=
EXTT4=
EXTT5=
EXTT6=
EXTT7=
EXTT8=
EXTT9=
EXTT10=
EXTT11=
EXTT12=
EXTT13=
EXTT14=
EXTT15=
PLAYORDER=
